<?xml version="1.0" encoding="UTF-8" standalone="no"?>
<!DOCTYPE svg PUBLIC "-//W3C//DTD SVG 20010904//EN"
              "http://www.w3.org/TR/2001/REC-SVG-20010904/DTD/svg10.dtd">

<svg xmlns="http://www.w3.org/2000/svg"
     width="4.87778in" height="7.57778in"
     viewBox="0 0 439 682">
  <path id="Imported Path"
        fill="none" stroke="black" stroke-width="1"
        d="M 313.42,305.59
           C 313.42,307.51 314.49,309.11 316.03,310.04
             315.14,310.98 314.57,312.24 314.57,313.64
             314.57,316.56 316.93,318.91 319.84,318.91
             322.02,318.91 323.90,317.58 324.70,315.69
             330.17,318.90 336.04,327.83 336.04,327.83
             337.77,316.04 329.43,310.29 329.43,310.29
             329.43,310.29 329.41,310.25 329.41,310.25
             332.00,309.91 334.03,307.79 334.03,305.11
             334.03,302.20 331.66,299.83 328.75,299.83
             326.18,299.83 324.13,301.72 323.68,304.16
             323.04,301.96 321.10,300.32 318.69,300.32
             315.77,300.32 313.42,302.68 313.42,305.59
             313.42,305.59 313.42,305.59 313.42,305.59 Z
           M 120.04,305.59
           C 120.04,307.51 118.97,309.11 117.43,310.04
             118.32,310.98 118.89,312.24 118.89,313.64
             118.89,316.55 116.53,318.91 113.62,318.91
             111.44,318.91 109.56,317.58 108.76,315.69
             103.29,318.90 97.42,327.83 97.42,327.83
             95.69,316.04 104.03,310.29 104.03,310.29
             104.03,310.29 104.05,310.25 104.05,310.25
             101.46,309.91 99.43,307.79 99.43,305.11
             99.43,302.20 101.79,299.83 104.70,299.83
             107.28,299.83 109.32,301.72 109.79,304.16
             110.42,301.96 112.37,300.32 114.77,300.32
             117.68,300.32 120.04,302.68 120.04,305.59
             120.04,305.59 120.04,305.59 120.04,305.59 Z
           M 249.67,415.95
           C 248.45,420.56 246.84,421.71 246.84,421.71
             306.26,410.59 368.11,369.17 368.11,369.17
             372.06,355.18 370.53,349.62 370.53,349.62
             370.53,349.62 365.27,358.82 321.22,387.57
             277.15,416.33 249.67,415.95 249.67,415.95
             249.67,415.95 249.67,415.95 249.67,415.95 Z
           M 187.62,421.71
           C 128.20,410.59 66.36,369.17 66.36,369.17
             62.43,352.49 64.54,350.00 64.54,350.00
             64.54,350.00 69.19,358.82 113.25,387.57
             157.31,416.33 184.79,415.95 184.79,415.95
             186.01,420.56 187.62,421.71 187.62,421.71 Z
           M 233.11,479.63
           C 230.52,480.82 231.56,485.45 231.75,487.66
             231.87,489.07 231.82,490.23 232.69,491.43
             233.61,492.70 235.75,493.65 235.64,495.44
             235.58,496.52 234.48,497.21 234.52,498.33
             234.55,499.41 235.56,500.24 235.93,501.19
             236.73,503.24 236.90,506.55 236.70,508.70
             236.49,510.89 236.53,513.97 234.97,515.59
             233.28,517.34 232.81,518.28 232.76,520.82
             232.72,523.56 235.14,525.07 237.62,525.65
             238.20,525.78 240.20,525.72 240.26,526.61
             240.32,527.67 237.88,527.65 237.28,527.88
             235.76,528.47 233.34,531.29 233.70,533.03
             234.21,535.44 238.19,537.12 240.40,536.73
             243.66,536.15 242.19,538.75 240.74,540.11
             239.16,541.59 237.29,542.85 237.24,545.27
             237.11,550.57 244.68,548.92 247.61,546.93
             247.65,548.62 246.98,549.41 245.83,550.52
             243.85,552.45 242.92,556.86 246.84,557.46
             250.32,557.99 251.39,550.86 252.44,548.84
             252.62,551.68 252.69,560.08 256.54,563.68
             258.09,565.14 261.61,567.02 262.63,564.31
             263.01,563.31 262.55,561.83 262.24,560.89
             261.59,558.98 259.73,556.09 260.71,554.02
             262.03,551.24 265.01,555.50 265.73,556.65
             266.91,558.55 267.75,560.78 269.35,562.39
             270.38,563.43 271.92,564.20 273.22,563.14
             274.72,561.92 274.38,559.61 273.65,558.07
             272.55,555.71 270.46,554.07 268.78,552.17
             267.74,551.00 266.56,549.41 267.95,548.06
             270.58,545.51 276.08,546.23 276.39,541.39
             276.51,539.74 275.57,538.20 273.88,537.89
             272.94,537.71 271.86,538.09 271.04,538.49
             270.46,538.77 269.45,539.65 268.74,539.34
             267.44,538.79 268.71,536.40 268.75,535.42
             268.83,533.80 268.27,532.19 266.57,531.73
             265.53,531.45 263.89,532.30 263.10,531.39
             262.17,530.32 263.45,528.04 263.97,527.08
             265.28,524.60 266.09,520.20 261.87,519.88
             258.65,519.64 258.49,524.76 255.36,524.39
             251.98,524.00 253.19,517.88 249.38,517.50
             247.84,517.35 246.53,518.78 245.03,518.50
             243.65,518.24 242.66,516.58 241.87,515.55
             239.54,512.57 239.58,509.89 241.14,506.47
             241.95,504.70 242.52,503.22 242.43,501.25
             242.36,499.61 242.26,498.24 242.75,496.64
             244.94,498.00 250.43,500.40 252.77,497.95
             253.91,496.77 252.57,495.33 251.66,494.37
             250.31,492.94 249.14,492.57 247.20,492.62
             243.72,492.71 240.98,492.55 238.52,489.90
             237.64,488.94 236.52,487.79 236.71,486.40
             236.87,485.21 238.98,483.33 238.46,482.10
             237.93,480.83 236.46,482.24 235.44,482.13
             233.93,481.98 233.39,480.26 232.82,479.05M 201.77,479.63
           C 204.37,480.82 203.33,485.45 203.13,487.66
             203.01,489.07 203.07,490.23 202.19,491.43
             201.27,492.70 199.13,493.65 199.24,495.44
             199.30,496.52 200.40,497.21 200.37,498.33
             200.33,499.41 199.32,500.24 198.95,501.19
             198.15,503.24 197.99,506.55 198.19,508.70
             198.39,510.89 198.35,513.97 199.91,515.59
             201.61,517.34 202.08,518.28 202.12,520.82
             202.17,523.56 199.75,525.07 197.26,525.65
             196.68,525.78 194.68,525.72 194.63,526.61
             194.56,527.67 197.01,527.65 197.61,527.88
             199.13,528.47 201.55,531.29 201.18,533.03
             200.68,535.44 196.69,537.12 194.49,536.73
             191.23,536.15 192.69,538.75 194.14,540.11
             195.72,541.59 197.59,542.85 197.65,545.27
             197.77,550.57 190.21,548.92 187.28,546.93
             187.23,548.62 187.91,549.41 189.06,550.52
             191.03,552.45 191.97,556.86 188.05,557.46
             184.57,557.99 183.50,550.86 182.45,548.84
             182.27,551.68 182.20,560.08 178.35,563.68
             176.79,565.14 173.28,567.02 172.25,564.31
             171.88,563.31 172.34,561.83 172.65,560.89
             173.30,558.98 175.16,556.09 174.17,554.02
             172.86,551.24 169.87,555.50 169.16,556.65
             167.97,558.55 167.14,560.78 165.53,562.39
             164.51,563.43 162.97,564.20 161.67,563.14
             160.16,561.92 160.51,559.61 161.23,558.07
             162.33,555.71 164.43,554.07 166.11,552.17
             167.15,551.00 168.32,549.41 166.93,548.06
             164.30,545.51 158.81,546.23 158.49,541.39
             158.38,539.74 159.32,538.20 161.00,537.89
             161.94,537.71 163.02,538.09 163.85,538.49
             164.42,538.77 165.44,539.65 166.14,539.34
             167.45,538.79 166.18,536.40 166.13,535.42
             166.06,533.80 166.61,532.19 168.31,531.73
             169.36,531.45 170.99,532.30 171.78,531.39
             172.71,530.32 171.43,528.04 170.92,527.08
             169.60,524.60 168.80,520.20 173.01,519.88
             176.23,519.64 176.39,524.76 179.52,524.39
             182.90,524.00 181.69,517.88 185.50,517.50
             187.04,517.35 188.35,518.78 189.85,518.50
             191.23,518.24 192.22,516.58 193.02,515.55
             195.34,512.57 195.30,509.89 193.74,506.47
             192.94,504.70 192.36,503.22 192.45,501.25
             192.52,499.61 192.62,498.24 192.13,496.64
             189.94,498.00 184.45,500.40 182.11,497.95
             180.97,496.77 182.31,495.33 183.22,494.37
             184.57,492.94 185.74,492.57 187.68,492.62
             191.15,492.71 193.90,492.55 196.36,489.90
             197.24,488.94 198.36,487.79 198.17,486.40
             198.01,485.21 195.90,483.33 196.42,482.10
             196.95,480.83 198.43,482.24 199.44,482.13
             200.95,481.98 201.49,480.26 202.05,479.05M 290.96,485.59
           C 280.03,489.33 276.30,496.95 276.29,496.95
             273.56,492.35 277.73,488.47 277.73,488.47
             271.69,488.18 271.12,484.16 271.12,484.16
             273.85,484.73 278.60,481.86 278.60,481.86
             275.72,476.39 275.15,473.09 275.15,473.09
             276.15,474.24 278.17,474.52 278.17,474.52
             278.45,472.80 279.60,471.65 279.60,471.65
             281.47,477.26 286.22,483.15 286.22,483.15
             288.23,482.43 290.53,479.84 290.53,479.84
             290.39,482.43 290.96,485.59 290.96,485.59
             290.96,485.59 290.96,485.59 290.96,485.59 Z
           M 146.88,485.59
           C 157.81,489.33 161.55,496.95 161.55,496.95
             164.28,492.35 160.11,488.47 160.11,488.47
             166.15,488.18 166.73,484.16 166.73,484.16
             163.99,484.73 159.25,481.86 159.25,481.86
             162.12,476.39 162.70,473.09 162.70,473.09
             161.69,474.24 159.68,474.52 159.68,474.52
             159.39,472.80 158.24,471.65 158.24,471.65
             156.37,477.26 151.63,483.15 151.63,483.15
             149.62,482.43 147.31,479.84 147.31,479.84
             147.46,482.43 146.88,485.59 146.88,485.59
             146.88,485.59 146.88,485.59 146.88,485.59 Z
           M 228.27,313.67
           C 227.26,313.67 226.45,314.48 226.45,315.49
             226.45,316.50 227.26,317.31 228.27,317.31
             229.28,317.31 230.09,316.50 230.09,315.49
             230.09,314.48 229.28,313.67 228.27,313.67 Z
           M 225.58,310.51
           C 225.58,310.51 233.25,317.41 233.25,317.41
             233.25,317.41 230.95,322.78 225.58,318.56
             220.22,314.34 225.58,310.51 225.58,310.51
             225.58,310.51 225.58,310.51 225.58,310.51 Z
           M 210.68,307.06
           C 207.99,303.22 210.68,301.69 210.68,301.69M 177.47,305.90
           C 184.37,298.04 196.64,304.75 196.64,304.75
             185.52,302.84 177.47,305.90 177.47,305.90 Z
           M 193.95,302.84M 175.26,302.91
           C 177.05,299.18 179.96,296.75 184.21,296.06
             188.61,295.35 191.98,299.57 194.61,302.43
             197.99,306.11 201.66,309.46 205.56,312.60
             208.32,314.82 211.98,317.90 211.08,321.91
             210.26,325.64 205.21,323.45 203.35,321.63
             187.24,305.91 183.79,310.51 183.79,310.51
             187.24,310.89 197.21,320.48 200.68,324.89
             204.16,329.29 209.86,331.98 214.85,327.00
             219.83,322.01 214.47,318.94 213.70,313.96
             212.93,308.98 216.77,303.99 216.77,303.99
             194.91,284.81 183.41,287.50 183.41,287.50
             175.66,288.28 173.86,296.46 175.26,302.91
             175.26,302.91 175.26,302.91 175.26,302.91 Z
           M 247.39,505.15
           C 247.39,506.73 248.69,511.48 248.69,511.48
             247.25,509.61 245.24,512.05 245.24,512.05
             244.37,508.03 247.39,505.15 247.39,505.15
             247.39,505.15 247.39,505.15 247.39,505.15 Z
           M 281.04,526.58
           C 285.36,536.79 277.88,539.52 277.88,539.52
             280.90,532.61 274.43,528.88 274.43,528.88
             279.03,529.45 281.04,526.58 281.04,526.58 Z
           M 296.43,518.81
           C 298.87,516.80 305.63,519.39 305.63,519.39
             305.34,514.50 298.01,512.20 298.01,512.20
             299.16,515.07 296.43,518.81 296.43,518.81 Z
           M 141.27,482.72M 291.25,494.80
           C 292.40,491.20 296.28,489.77 296.28,489.77
             290.82,485.74 287.66,490.77 287.66,490.77
             288.81,493.79 291.25,494.80 291.25,494.80 Z
           M 186.14,504.29
           C 187.14,505.87 186.28,509.75 186.28,509.75
             189.45,509.61 191.32,512.48 191.32,512.48
             192.75,504.43 186.14,504.29 186.14,504.29
             186.14,504.29 186.14,504.29 186.14,504.29 Z
           M 152.78,526.86
           C 154.07,529.16 159.11,528.59 159.10,528.59
             156.52,528.73 154.94,536.50 154.94,536.50
             149.04,533.05 152.78,526.86 152.78,526.86
             152.78,526.86 152.78,526.86 152.78,526.86 Z
           M 137.10,518.38
           C 133.37,516.80 130.06,519.67 130.06,519.67
             130.06,512.91 136.24,511.77 136.24,511.77
             135.09,515.07 137.11,518.38 137.10,518.38 Z
           M 146.59,490.34
           C 145.59,494.08 143.00,494.37 143.00,494.37
             141.99,491.49 136.10,492.35 136.10,492.35
             140.56,485.45 146.59,490.34 146.59,490.34
             146.59,490.34 146.59,490.34 146.59,490.34 Z
           M 255.15,406.92
           C 255.15,406.92 250.94,407.78 250.94,407.78
             253.34,397.74 244.62,379.10 244.62,379.10
             253.34,389.71 262.07,387.99 260.26,387.70
             258.45,387.41 256.96,387.70 255.45,381.96
             253.93,376.23 249.43,369.06 249.43,369.06
             253.93,368.48 252.74,364.47 252.74,364.47
             244.02,364.76 244.92,357.30 244.92,357.30
             248.54,360.17 255.45,358.45 255.45,358.45
             250.94,357.59 250.63,351.85 250.63,351.85
             258.45,351.56 259.36,348.69 259.36,348.69
             255.45,346.69 254.84,342.10 254.84,342.10
             255.45,334.07 253.34,328.62 253.34,328.62
             249.13,321.16 237.09,311.12 228.67,305.67
             220.25,300.22 215.43,305.67 215.43,305.67
             215.43,305.67 211.22,306.53 211.22,306.53
             211.22,306.53 212.73,320.87 212.73,320.87
             212.73,320.87 212.73,328.04 212.73,328.04
             212.73,328.04 206.41,329.19 206.41,329.19
             206.41,329.19 200.69,324.89 200.69,324.89
             200.69,324.89 197.99,326.90 197.99,326.90
             200.69,332.92 195.88,336.36 195.88,336.36
             195.88,336.36 201.60,337.22 201.60,337.22
             201.90,339.52 200.39,347.83 200.39,347.83
             200.39,351.85 191.37,358.73 191.37,358.73
             191.37,358.73 195.88,359.59 195.88,359.59
             195.35,359.48 186.90,368.83 185.84,369.74
             182.90,372.27 178.95,374.57 176.51,377.52
             179.85,378.86 184.77,378.87 188.40,378.98
             184.26,383.62 182.34,388.63 181.83,394.81
             181.78,395.41 181.34,404.27 182.04,404.33
             178.54,404.00 175.45,405.41 172.04,405.34
             167.92,405.25 164.30,402.51 160.27,401.79
             155.97,401.01 153.18,400.96 149.54,398.46
             145.52,395.68 142.07,395.05 137.41,393.83
             130.58,392.04 125.84,384.67 121.22,379.91
             118.70,377.31 115.00,375.40 113.32,372.19
             111.34,368.39 112.37,363.80 111.39,359.78
             109.53,352.16 102.67,346.45 105.93,338.08
             105.84,338.30 116.70,336.22 117.43,335.92
             124.66,332.94 129.15,328.40 130.79,320.95
             135.10,301.40 122.73,283.71 102.04,285.96
             89.68,287.31 80.80,296.29 75.90,304.39
             71.21,312.15 69.51,321.35 67.78,330.04
             65.82,339.86 63.48,350.00 65.31,359.88
             71.63,394.01 71.03,409.50 71.78,418.85
             72.88,432.52 61.10,435.60 61.10,435.60
             61.10,435.60 64.41,449.08 77.04,439.90
             89.68,430.73 84.87,406.63 84.87,404.91
             84.87,403.19 96.60,416.38 96.00,455.10
             95.86,463.85 96.93,488.19 82.22,487.74
             80.66,487.69 79.13,487.28 77.67,486.77
             80.86,496.51 89.57,496.39 96.90,490.10
             105.93,480.35 108.50,464.28 109.91,454.20
             111.50,442.69 111.94,411.22 116.46,421.83
             116.46,421.83 128.49,472.31 124.28,501.86
             123.28,508.83 120.58,533.35 108.70,531.99
             107.02,531.79 105.37,530.94 103.91,530.18
             102.89,533.93 103.22,541.71 108.33,544.02
             114.05,546.60 121.32,543.04 124.28,539.14
             130.14,531.41 132.15,520.08 134.17,510.86
             136.44,500.57 137.69,490.08 138.51,479.60
             139.16,471.55 139.49,463.47 139.62,455.39
             139.62,455.39 139.62,447.93 142.03,455.10
             142.03,455.10 148.05,471.74 148.35,479.48
             148.35,479.48 153.76,447.65 159.18,447.93
             159.18,447.93 160.08,462.27 160.08,468.01
             160.08,468.01 167.30,453.95 173.92,447.93
             180.54,441.91 176.93,450.51 176.93,450.51
             176.93,450.51 173.02,469.73 163.09,480.63
             163.09,480.63 170.01,485.22 179.04,477.47
             179.04,477.47 181.44,495.26 191.97,489.81
             191.97,489.81 187.75,484.65 189.26,478.91
             189.26,478.91 193.78,479.77 194.98,481.20
             194.98,481.20 191.97,464.57 197.68,459.98
             203.41,455.39 210.32,494.68 208.82,500.99
             208.82,500.99 197.39,506.16 207.01,516.77
             207.01,516.77 210.32,568.69 170.31,572.99
             170.31,572.99 136.62,572.99 154.65,552.34
             154.62,552.38 141.73,542.87 137.34,556.59
             134.12,566.65 141.35,576.55 150.34,579.58
             162.02,583.52 179.60,579.35 190.88,575.50
             192.04,575.10 198.91,572.97 195.28,576.43
             195.28,576.43 167.90,594.79 171.51,602.53
             175.12,610.28 185.65,600.81 198.29,580.16
             198.29,580.16 201.30,576.43 201.60,581.02
             201.60,581.02 187.75,607.98 196.18,611.42
             196.18,611.42 206.11,618.02 207.32,585.32
             207.32,585.32 206.41,577.86 211.83,578.15
             211.83,578.15 214.53,577.57 213.03,586.18
             213.03,586.18 205.21,615.72 217.54,615.72
             229.88,615.72 222.06,586.18 222.06,586.18
             220.55,577.57 223.26,578.15 223.26,578.15
             228.68,577.86 227.77,585.32 227.77,585.32
             228.97,618.02 238.91,611.42 238.91,611.42
             247.33,607.98 233.49,581.02 233.49,581.02
             233.79,576.43 236.80,580.16 236.80,580.16
             249.44,600.81 259.97,610.28 263.58,602.53
             267.19,594.78 239.81,576.43 239.81,576.43
             236.17,572.97 243.04,575.10 244.21,575.50
             255.48,579.35 273.07,583.52 284.75,579.58
             293.73,576.55 300.96,566.65 297.73,556.59
             293.36,542.87 280.45,552.38 280.43,552.34
             298.45,572.99 264.78,572.99 264.78,572.99
             224.76,568.69 228.07,516.77 228.07,516.77
             237.70,506.16 226.27,500.99 226.27,500.99
             224.76,494.68 231.68,455.39 237.41,459.98
             243.11,464.57 240.11,481.20 240.11,481.20
             241.31,479.77 245.83,478.91 245.83,478.91
             247.32,484.65 243.11,489.81 243.11,489.81
             253.64,495.26 256.05,477.47 256.05,477.47
             265.07,485.22 271.99,480.63 271.99,480.63
             262.07,469.73 258.15,450.51 258.15,450.51
             258.15,450.51 254.54,441.91 261.16,447.93
             267.78,453.95 275.00,468.01 275.00,468.01
             275.00,462.27 275.90,447.93 275.90,447.93
             281.32,447.65 286.74,479.48 286.74,479.48
             287.03,471.74 293.06,455.10 293.06,455.10
             295.46,447.93 295.46,455.39 295.46,455.39
             295.59,463.47 295.92,471.55 296.57,479.60
             297.39,490.08 298.64,500.57 300.91,510.86
             302.94,520.08 304.94,531.41 310.81,539.14
             313.75,543.04 321.03,546.60 326.75,544.02
             331.86,541.71 332.19,533.93 331.17,530.18
             329.72,530.94 328.05,531.80 326.39,531.99
             314.52,533.35 311.80,508.83 310.81,501.86
             306.60,472.31 318.63,421.83 318.63,421.83
             323.14,411.22 323.58,442.69 325.19,454.20
             326.58,464.28 329.16,480.35 338.18,490.10
             345.51,496.39 354.23,496.51 357.40,486.77
             355.96,487.28 354.42,487.69 352.86,487.74
             338.15,488.19 339.22,463.85 339.09,455.10
             338.49,416.38 350.22,403.19 350.22,404.91
             350.22,406.63 345.40,430.73 358.03,439.90
             370.67,449.08 373.99,435.60 373.99,435.60
             373.99,435.60 362.20,432.52 363.30,418.85
             364.06,409.50 363.46,394.01 369.77,359.88
             371.59,350.00 369.27,339.86 367.31,330.04
             365.58,321.35 363.87,312.15 359.18,304.39
             354.28,296.29 345.40,287.31 333.04,285.96
             312.35,283.71 299.31,300.82 303.05,318.65
             304.61,326.12 310.42,332.94 317.67,335.92
             318.39,336.22 329.24,338.30 329.16,338.08
             332.42,346.45 325.55,352.16 323.69,359.78
             322.72,363.80 323.73,368.39 321.77,372.19
             320.08,375.41 316.37,377.32 313.87,379.91
             309.24,384.68 304.51,392.04 297.68,393.83
             293.02,395.06 289.56,395.69 285.54,398.46
             281.90,400.97 279.11,401.02 274.81,401.79
             270.78,402.51 267.16,405.25 263.04,405.34
             259.63,405.41 258.64,406.58 255.15,406.92
             255.15,406.92 255.15,406.92 255.15,406.92 Z
           M 262.63,481.42
           C 259.18,480.42 255.45,477.69 255.45,477.69
             255.30,479.84 252.57,486.17 252.57,486.17
             255.59,488.47 264.50,504.43 263.79,506.30
             263.07,508.17 257.31,504.15 251.99,503.43
             246.67,502.71 247.82,507.45 247.82,509.47
             247.82,511.48 249.84,512.77 255.88,512.20
             261.91,511.62 263.93,511.91 267.23,514.07
             270.54,516.22 269.97,523.99 272.13,526.86
             274.28,529.74 275.15,529.16 279.17,528.59
             282.41,528.13 281.16,523.78 279.81,522.04
             278.28,520.06 272.28,516.02 275.83,513.18
             279.62,510.16 285.54,516.80 288.76,518.30
             290.45,519.08 292.26,519.67 294.13,519.67
             296.43,519.67 299.88,516.80 298.01,512.19
             296.14,507.59 285.79,509.17 285.79,509.17
             278.60,509.61 279.03,507.88 279.03,507.88
             277.45,505.72 284.49,503.28 284.49,503.28
             293.98,498.97 291.25,494.80 291.25,494.80
             289.67,495.37 287.66,490.77 287.66,490.77
             283.63,488.90 279.32,500.40 278.02,501.41
             276.73,502.42 276.44,504.43 271.55,502.13
             266.66,499.83 262.63,481.42 262.63,481.42
             262.63,481.42 262.63,481.42 262.63,481.42 Z
           M 171.62,480.99
           C 175.07,479.99 178.80,477.25 178.80,477.26
             178.95,479.41 181.68,485.74 181.68,485.74
             178.66,488.04 169.74,504.00 170.46,505.87
             171.18,507.74 176.93,503.72 182.26,503.00
             187.58,502.28 186.42,507.02 186.42,509.04
             186.42,511.05 184.41,512.34 178.37,511.77
             172.33,511.19 170.32,511.48 167.01,513.63
             163.71,515.79 164.28,523.56 162.12,526.43
             159.97,529.31 159.10,528.73 155.08,528.16
             151.84,527.70 153.09,523.35 154.44,521.61
             155.97,519.63 161.97,515.58 158.42,512.75
             154.63,509.73 148.72,516.37 145.49,517.87
             143.80,518.65 141.99,519.24 140.12,519.24
             137.82,519.24 134.37,516.37 136.24,511.76
             138.11,507.16 148.46,508.74 148.46,508.74
             155.65,509.17 155.22,507.45 155.22,507.45
             156.80,505.29 149.76,502.85 149.76,502.85
             140.27,498.53 143.00,494.36 143.00,494.36
             144.58,494.94 146.59,490.34 146.59,490.34
             150.62,488.47 154.94,499.97 156.23,500.98
             157.52,501.99 157.81,504.00 162.70,501.70
             167.59,499.40 171.62,480.99 171.62,480.99
             171.62,480.99 171.62,480.99 171.62,480.99 Z
           M 252.71,318.65
           C 252.08,319.82 252.91,321.26 254.24,321.70
             255.96,322.25 257.19,320.78 258.47,319.80M 216.19,279.84
           C 216.19,282.30 215.73,284.80 215.90,287.18
             216.08,289.70 217.70,290.69 217.01,293.31
             212.29,293.81 210.81,291.32 210.71,286.96
             210.67,285.00 210.83,283.38 210.15,281.56
             209.64,280.22 208.87,279.06 208.56,277.65
             207.17,279.00 205.17,290.90 202.09,286.11
             200.87,284.22 202.64,282.56 200.39,280.61
             197.86,278.43 193.97,275.56 194.33,271.59
             194.18,273.19 193.33,274.40 193.06,275.91
             192.85,277.14 193.52,278.48 193.12,279.70
             192.66,281.09 191.94,282.07 190.30,281.85
             190.59,281.28 189.73,278.98 185.99,278.98
             182.25,278.98 177.36,274.09 177.36,274.09
             174.77,279.26 177.65,283.58 177.65,283.58
             176.21,283.00 171.32,282.43 171.32,282.43
             167.59,283.00 163.56,280.99 163.56,280.99
             164.13,285.02 167.59,286.45 167.59,286.45
             172.47,288.18 169.02,292.78 169.02,292.78
             167.30,293.93 160.11,294.79 160.11,294.79
             160.40,297.96 163.56,299.11 163.56,299.11
             168.16,298.82 167.87,303.71 167.87,303.71
             168.16,307.73 162.41,309.75 162.41,309.75
             165.86,312.62 169.89,310.32 169.89,310.32
             174.20,308.88 173.91,311.47 173.91,311.47
             175.93,316.36 169.60,319.52 169.60,319.52
             170.75,321.25 177.65,318.95 177.65,318.95
             184.55,315.79 185.42,319.52 185.42,319.52
             186.85,322.40 182.54,326.43 182.54,326.43
             186.28,329.01 190.59,325.56 191.45,325.85
             196.06,325.85 193.18,329.01 193.18,329.01
             190.31,331.89 189.15,335.92 189.15,335.92
             195.20,335.34 196.63,338.50 196.63,338.50
             196.63,346.27 184.84,341.95 184.84,341.95
             184.84,345.98 189.16,351.44 189.16,351.44
             188.29,355.76 176.79,352.31 176.79,352.31
             177.08,355.76 181.97,358.63 181.97,358.63
             187.43,364.38 180.53,364.10 180.53,364.10
             175.93,360.36 174.20,361.80 174.20,361.80
             175.35,364.67 173.34,369.56 173.34,369.56
             171.61,372.73 165.57,371.29 165.57,371.29
             166.44,375.89 172.47,376.18 172.47,376.18
             173.63,379.92 170.75,383.08 170.75,383.08
             172.76,380.20 179.67,379.92 179.67,379.92
             185.42,388.26 172.19,389.69 172.19,389.69
             176.79,394.58 171.40,398.70 171.40,398.70
             171.40,398.70 167.56,399.28 165.65,396.40
             163.74,393.53 157.98,386.82 158.37,385.67
             158.75,384.52 157.02,384.52 153.19,392.57
             153.19,392.57 151.28,395.06 149.36,391.23
             147.44,387.39 145.90,382.98 146.67,381.83
             146.67,381.83 143.60,381.06 140.54,387.77
             140.54,387.77 135.17,383.75 137.09,376.27
             137.09,376.27 132.48,376.66 127.31,381.64
             122.13,386.62 124.62,372.24 127.50,371.29
             130.38,370.33 124.82,368.41 118.87,371.09
             112.93,373.78 119.06,359.59 121.36,359.21
             123.66,358.83 119.83,357.29 114.08,358.06
             108.33,358.83 117.53,346.94 120.60,347.90
             123.66,348.86 112.73,344.44 112.16,345.02
             111.58,345.60 107.75,339.84 118.68,340.23
             129.61,340.61 126.74,336.20 133.25,339.65
             139.77,343.10 133.64,333.14 129.22,331.99
             124.81,330.84 135.93,323.93 141.11,325.08
             146.29,326.23 137.47,319.14 134.21,318.95
             130.95,318.76 140.54,309.36 144.18,309.55
             147.82,309.74 141.11,305.33 134.78,307.06
             128.46,308.78 133.63,304.37 135.74,302.27
             137.85,300.16 137.85,294.40 139.58,292.68
             141.30,290.95 134.59,290.96 131.91,294.02
             129.22,297.09 125.77,282.52 127.88,280.41
             129.99,278.30 121.75,280.99 119.45,284.44
             117.15,287.89 114.65,276.96 116.19,274.85
             117.72,272.74 108.71,275.43 105.07,279.64
             101.42,283.86 98.93,274.47 101.04,272.36
             103.15,270.25 97.02,271.78 94.14,280.22
             91.26,288.65 87.62,281.75 87.62,279.45
             87.62,277.15 86.08,276.38 88.00,275.04
             89.92,273.70 81.10,274.65 82.64,285.78
             84.17,296.90 74.20,284.82 75.73,282.52
             77.27,280.22 71.71,281.56 72.09,296.13
             72.47,310.70 64.23,295.17 64.42,294.02
             64.61,292.87 64.04,302.84 65.96,307.06
             67.87,311.28 58.67,312.81 56.75,310.32
             54.84,307.82 59.63,316.64 61.74,320.09
             63.84,323.54 58.48,325.46 55.60,323.16
             52.73,320.86 54.64,330.06 58.86,331.41
             63.08,332.75 57.71,339.07 52.92,336.97
             48.12,334.86 53.30,342.33 57.71,343.68
             62.12,345.02 57.90,351.73 54.64,349.43
             51.38,347.13 52.15,354.03 56.56,355.56
             60.97,357.10 60.97,362.27 56.56,362.27
             52.15,362.27 52.92,363.24 52.15,362.27
             51.38,361.31 55.98,369.56 60.59,370.33
             65.19,371.09 56.37,377.61 53.88,373.97
             51.38,370.33 54.26,381.06 62.31,383.36
             62.31,383.36 64.81,391.80 55.60,387.77
             55.60,387.77 59.06,393.15 63.08,395.64
             67.11,398.12 61.93,402.35 57.90,400.24
             58.09,400.81 60.02,405.41 65.96,408.86
             71.90,412.32 61.73,417.11 59.82,413.47
             59.82,413.47 62.69,417.11 66.72,421.90
             66.72,421.90 70.75,431.68 62.69,429.00
             62.69,429.00 55.41,425.35 55.99,424.58
             56.56,423.82 55.03,431.49 57.71,436.09
             57.71,436.09 53.11,438.00 53.49,444.72
             53.49,444.72 61.73,439.92 62.12,447.02
             62.12,447.02 61.93,453.73 63.84,454.11
             64.42,453.92 68.45,444.34 74.39,452.01
             74.39,452.01 76.69,456.80 76.69,456.80
             76.69,456.80 77.07,448.55 79.57,446.83
             82.06,445.10 84.17,446.64 84.17,446.64
             84.17,446.64 83.98,434.17 87.04,432.83
             90.12,431.49 89.35,428.61 89.54,427.65
             89.73,426.70 92.22,436.28 89.73,438.97
             87.24,441.65 88.20,442.61 88.20,442.61
             88.20,442.61 94.14,446.44 89.34,450.66
             84.55,454.88 86.66,452.38 85.70,452.20
             85.70,452.20 97.02,460.25 89.54,461.78
             89.54,461.78 85.70,461.98 85.70,460.06
             85.70,460.06 86.28,465.43 89.92,469.26
             89.92,469.26 90.31,475.96 84.94,471.75
             84.94,471.75 83.40,470.99 83.40,470.22
             83.40,469.45 85.51,482.87 78.61,480.38
             78.61,480.38 75.54,478.84 71.52,478.65
             71.52,478.65 74.20,484.59 75.16,486.70
             75.16,486.70 69.60,489.39 68.26,491.69
             68.26,491.69 72.86,493.80 76.69,493.22
             76.69,493.22 80.71,497.06 75.92,498.98
             75.92,498.98 73.62,499.55 73.62,499.55
             73.62,499.55 77.65,501.08 82.64,500.70
             82.64,500.70 89.73,502.42 84.17,507.98
             84.17,507.98 88.01,509.32 92.99,503.38
             92.99,503.38 98.74,502.61 98.55,507.98
             98.55,507.98 103.53,504.72 100.27,501.66
             100.27,501.66 102.39,494.95 107.94,501.27
             107.94,501.27 110.62,498.02 106.41,493.80
             106.41,493.80 104.69,489.19 111.97,488.62
             111.97,488.62 115.23,486.70 111.40,485.74
             111.58,484.79 110.44,479.03 112.55,477.12
             112.55,477.12 112.36,472.32 114.27,472.32
             114.27,472.32 111.58,468.48 114.46,465.42
             114.46,465.42 116.76,450.27 116.19,445.86
             116.19,445.86 122.12,457.56 117.91,465.23
             117.91,465.23 117.15,469.06 119.83,473.09
             119.83,473.09 122.89,481.14 116.76,482.29
             116.76,482.29 123.09,493.41 114.46,495.52
             114.46,495.52 115.42,500.69 118.30,503.95
             118.30,503.95 120.60,512.20 115.23,509.32
             115.23,509.32 112.74,507.02 111.40,507.41
             111.40,507.41 115.61,520.83 111.40,521.98
             111.40,521.98 108.71,523.32 107.75,519.10
             107.75,519.10 106.79,513.92 103.72,514.50
             103.72,514.50 104.68,523.89 99.89,524.28
             99.89,524.28 96.24,525.23 94.33,521.21
             94.33,521.21 92.61,527.73 99.32,531.37
             99.32,531.37 103.53,537.50 93.75,535.01
             93.75,535.01 94.52,540.96 102.57,540.38
             102.57,540.38 108.90,543.84 101.62,546.90
             101.62,546.90 99.51,550.73 107.94,549.39
             107.94,549.39 117.14,547.48 112.73,556.10
             112.73,556.10 116.19,556.68 119.45,551.12
             119.45,551.12 120.79,544.60 125.96,548.43
             125.96,548.43 126.54,550.54 125.96,551.31
             125.96,551.31 129.80,551.89 129.99,541.53
             129.99,541.53 131.14,536.54 135.55,539.04
             135.55,539.04 138.04,533.48 136.89,529.45
             136.89,529.45 141.68,524.08 145.52,524.08
             145.52,524.08 146.86,530.99 145.52,532.52
             145.52,532.52 142.83,529.83 140.91,536.36
             140.91,536.36 150.12,539.04 145.71,545.75
             145.71,545.75 140.15,548.24 137.46,542.68
             137.46,542.68 134.59,543.84 137.27,549.78
             137.27,549.78 139.19,557.64 128.45,554.76
             128.45,554.76 128.07,558.02 134.21,563.96
             134.21,563.96 137.09,570.29 128.65,567.80
             128.65,567.80 128.07,572.40 134.97,574.32
             134.97,574.32 141.10,579.30 131.14,578.34
             131.14,578.34 134.40,583.90 141.11,580.64
             141.11,580.64 146.48,579.30 144.75,584.67
             144.75,584.67 143.22,586.78 141.30,587.35
             141.30,587.35 149.74,589.08 152.80,583.14
             152.80,583.14 158.56,582.18 157.21,587.16
             157.21,587.16 155.87,590.23 154.14,590.61
             154.14,590.61 165.45,587.35 169.67,583.90
             169.67,583.90 176.77,581.99 172.36,588.69
             172.36,588.69 162.01,596.36 161.24,596.36
             161.24,596.36 171.21,597.70 166.99,604.22
             166.99,604.22 162.58,608.83 162.01,609.02
             162.01,609.02 167.76,609.60 171.21,608.82
             171.21,608.82 179.26,606.71 173.13,616.68
             173.13,616.68 178.11,617.65 181.95,611.89
             181.95,611.89 188.85,605.18 188.85,605.18
             188.85,605.18 193.07,609.40 187.89,616.49
             187.89,616.49 193.06,618.79 195.56,616.11
             195.56,616.11 199.39,614.96 199.39,623.40
             199.39,623.40 201.89,626.46 204.00,617.45
             204.00,617.45 204.95,612.47 209.55,617.06
             212.12,619.63 213.25,620.66 213.91,624.24
             214.30,626.35 213.71,630.51 217.53,630.01
             219.73,629.72 219.30,624.65 219.76,622.89
             220.52,619.93 221.47,619.27 223.66,617.07
             228.26,612.47 229.22,617.45 229.22,617.45
             231.33,626.46 233.82,623.40 233.82,623.40
             233.82,614.96 237.66,616.11 237.66,616.11
             240.15,618.79 245.33,616.49 245.33,616.49
             240.15,609.40 244.37,605.18 244.37,605.18
             244.37,605.18 251.27,611.89 251.27,611.89
             255.11,617.65 260.09,616.68 260.09,616.68
             253.96,606.72 262.01,608.82 262.01,608.82
             265.46,609.59 271.21,609.02 271.21,609.02
             270.63,608.83 266.23,604.22 266.23,604.22
             262.01,597.70 271.98,596.36 271.98,596.36
             271.21,596.36 260.86,588.69 260.86,588.69
             256.44,581.99 263.54,583.90 263.54,583.90
             267.76,587.35 279.07,590.61 279.07,590.61
             277.35,590.23 276.00,587.16 276.00,587.16
             274.66,582.18 280.41,583.14 280.41,583.14
             283.48,589.08 291.91,587.35 291.91,587.35
             290.00,586.78 288.46,584.67 288.46,584.67
             286.74,579.30 292.11,580.64 292.11,580.64
             298.82,583.90 302.08,578.34 302.08,578.34
             292.11,579.30 298.24,574.32 298.24,574.32
             305.14,572.40 304.57,567.80 304.57,567.80
             296.13,570.28 299.01,563.96 299.01,563.96
             305.14,558.02 304.76,554.76 304.76,554.76
             294.03,557.64 295.94,549.78 295.94,549.78
             298.63,543.84 295.75,542.68 295.75,542.68
             293.07,548.24 287.51,545.75 287.51,545.75
             283.10,539.04 292.30,536.35 292.30,536.35
             290.39,529.83 287.70,532.52 287.70,532.52
             286.36,530.99 287.70,524.08 287.70,524.08
             291.54,524.08 296.33,529.45 296.33,529.45
             295.18,533.48 297.67,539.04 297.67,539.04
             302.08,536.54 303.23,541.53 303.23,541.53
             303.42,551.88 307.26,551.31 307.26,551.31
             306.68,550.54 307.26,548.43 307.26,548.43
             312.43,544.60 313.77,551.12 313.77,551.12
             317.03,556.67 320.49,556.10 320.49,556.10
             316.08,547.48 325.28,549.39 325.28,549.39
             333.71,550.73 331.60,546.90 331.60,546.90
             324.32,543.84 330.65,540.38 330.65,540.38
             338.70,540.95 339.47,535.01 339.47,535.01
             329.69,537.50 333.90,531.37 333.90,531.37
             340.61,527.73 338.89,521.21 338.89,521.21
             336.97,525.23 333.33,524.27 333.33,524.27
             328.53,523.89 329.49,514.50 329.49,514.50
             326.43,513.92 325.47,519.10 325.47,519.10
             324.51,523.32 321.82,521.97 321.82,521.97
             317.60,520.83 321.82,507.40 321.82,507.40
             320.48,507.02 317.99,509.32 317.99,509.32
             312.62,512.20 314.92,503.95 314.92,503.95
             317.80,500.69 318.76,495.52 318.76,495.52
             310.13,493.41 316.46,482.29 316.46,482.29
             310.33,481.14 313.39,473.09 313.39,473.09
             316.07,469.06 315.31,465.23 315.31,465.23
             311.10,457.56 317.04,445.86 317.04,445.86
             316.46,450.27 318.76,465.42 318.76,465.42
             321.64,468.48 318.95,472.32 318.95,472.32
             320.86,472.32 320.68,477.11 320.68,477.11
             322.78,479.03 321.64,484.78 321.83,485.74
             317.99,486.70 321.25,488.62 321.25,488.62
             328.54,489.19 326.81,493.79 326.81,493.79
             322.60,498.01 325.28,501.27 325.28,501.27
             330.84,494.95 332.95,501.65 332.95,501.65
             329.69,504.72 334.67,507.98 334.67,507.98
             334.48,502.61 340.23,503.38 340.23,503.38
             345.22,509.32 349.05,507.98 349.05,507.98
             343.50,502.42 350.59,500.70 350.59,500.70
             355.57,501.08 359.60,499.55 359.60,499.55
             359.60,499.55 357.30,498.97 357.30,498.97
             352.51,497.05 356.53,493.22 356.53,493.22
             360.36,493.80 364.97,491.69 364.97,491.69
             363.62,489.39 358.06,486.70 358.06,486.70
             359.02,484.59 361.71,478.65 361.71,478.65
             357.68,478.84 354.61,480.38 354.61,480.38
             347.71,482.86 349.82,469.45 349.82,470.22
             349.82,470.98 348.29,471.75 348.29,471.75
             342.92,475.96 343.30,469.26 343.30,469.26
             346.95,465.43 347.52,460.06 347.52,460.06
             347.52,461.98 343.69,461.78 343.69,461.78
             336.21,460.25 347.52,452.19 347.52,452.19
             346.57,452.38 348.67,454.88 343.88,450.66
             339.08,446.44 345.03,442.61 345.03,442.61
             345.03,442.61 345.99,441.65 343.50,438.96
             341.01,436.28 343.50,426.70 343.69,427.65
             343.87,428.61 343.11,431.49 346.18,432.83
             349.25,434.17 349.05,446.63 349.05,446.63
             349.05,446.63 351.16,445.10 353.66,446.83
             356.15,448.55 356.53,456.79 356.53,456.79
             356.53,456.79 358.84,452.00 358.84,452.00
             364.78,444.34 368.81,453.92 369.38,454.11
             371.30,453.73 371.11,447.01 371.11,447.01
             371.49,439.92 379.74,444.71 379.74,444.71
             380.12,438.00 375.52,436.09 375.52,436.09
             378.20,431.48 376.67,423.82 377.24,424.58
             377.82,425.35 370.53,428.99 370.53,428.99
             362.48,431.68 366.51,421.90 366.51,421.90
             370.53,417.10 373.41,413.46 373.41,413.46
             371.49,417.11 361.33,412.31 367.27,408.86
             373.21,405.41 375.13,400.81 375.32,400.23
             371.30,402.34 366.12,398.12 370.15,395.63
             374.17,393.14 377.62,387.77 377.62,387.77
             368.42,391.80 370.92,383.36 370.92,383.36
             378.97,381.06 381.84,370.32 379.35,373.96
             376.86,377.60 368.04,371.09 372.64,370.32
             377.24,369.56 381.85,361.31 381.08,362.27
             380.31,363.23 381.08,362.27 376.67,362.27
             372.26,362.27 372.26,357.10 376.67,355.56
             381.08,354.02 381.85,347.12 378.59,349.42
             375.33,351.73 371.11,345.01 375.52,343.67
             379.93,342.33 385.10,334.86 380.31,336.96
             375.52,339.07 370.15,332.74 374.37,331.40
             378.59,330.06 380.50,320.86 377.63,323.16
             374.75,325.46 369.39,323.54 371.49,320.09
             373.60,316.64 378.40,307.82 376.48,310.31
             374.56,312.81 365.36,311.27 367.27,307.05
             369.19,302.83 368.62,292.87 368.81,294.02
             369.00,295.17 360.76,310.70 361.14,296.13
             361.52,281.55 355.96,280.21 357.50,282.51
             359.03,284.82 349.06,296.89 350.59,285.77
             352.12,274.65 343.31,273.69 345.23,275.04
             347.15,276.38 345.61,277.15 345.61,279.45
             345.61,281.75 341.97,288.65 339.09,280.22
             336.21,271.78 330.08,270.24 332.19,272.35
             334.30,274.46 331.81,283.86 328.16,279.64
             324.52,275.42 315.51,272.74 317.05,274.85
             318.58,276.95 316.09,287.88 313.78,284.43
             311.48,280.98 303.24,278.30 305.35,280.41
             307.46,282.52 304.01,297.09 301.32,294.02
             298.64,290.95 291.93,290.95 293.65,292.68
             295.38,294.40 295.38,300.15 297.49,302.26
             299.60,304.37 304.77,308.78 298.45,307.06
             292.12,305.33 285.41,309.74 289.05,309.55
             292.69,309.36 302.28,318.75 299.02,318.94
             295.77,319.14 286.94,326.23 292.12,325.08
             297.30,323.93 308.42,330.83 304.01,331.98
             299.59,333.13 293.46,343.10 299.98,339.65
             306.50,336.20 303.62,340.61 314.55,340.22
             325.48,339.84 321.65,345.59 321.07,345.02
             320.50,344.44 309.57,348.85 312.64,347.89
             315.70,346.93 324.91,358.82 319.16,358.05
             313.40,357.28 309.57,358.82 311.87,359.20
             314.17,359.59 320.31,373.78 314.36,371.09
             308.42,368.40 302.86,370.32 305.73,371.28
             308.61,372.24 311.10,386.62 305.93,381.64
             300.75,376.65 296.15,376.27 296.15,376.27
             298.07,383.74 292.70,387.77 292.70,387.77
             289.63,381.06 286.56,381.83 286.56,381.83
             287.33,382.98 285.79,387.39 283.88,391.22
             281.96,395.05 280.04,392.57 280.04,392.57
             276.21,384.51 274.48,384.51 274.87,385.66
             275.25,386.81 269.50,393.52 267.58,396.40
             265.67,399.27 261.83,398.70 261.83,398.70
             256.56,398.79 253.58,394.58 255.02,392.28
             256.46,389.98 260.20,395.15 260.20,395.15
             260.20,395.15 260.20,388.83 260.20,388.83
             268.25,388.54 267.39,384.80 267.39,384.80
             256.17,380.20 267.10,375.89 265.95,373.87
             264.80,371.86 259.91,373.01 257.90,370.71
             255.88,368.41 265.38,364.67 262.21,365.82
             259.05,366.97 254.16,362.94 256.46,360.07
             258.76,357.19 265.38,362.94 263.36,358.63
             261.35,354.31 256.46,350.00 258.76,350.57
             261.06,351.15 275.15,344.25 269.11,343.67
             263.07,343.10 262.50,343.39 263.94,339.07
             265.37,334.76 269.69,326.99 267.67,327.86
             265.66,328.72 265.95,331.59 261.92,331.31
             256.04,330.89 259.57,329.75 260.99,326.12
             262.38,322.58 261.89,319.24 263.89,315.82
             263.06,317.23 261.18,316.65 260.33,317.80
             259.84,318.47 260.41,319.93 259.87,320.82
             259.08,322.10 256.69,322.43 255.57,321.43
             254.05,320.09 255.16,318.19 255.60,316.65
             256.68,312.85 256.45,309.12 257.10,305.26
             258.13,299.12 254.17,303.63 253.00,306.86
             251.87,310.00 251.50,312.96 247.64,311.38
             243.93,309.86 245.27,304.91 246.20,301.29
             246.83,298.83 246.42,294.25 243.55,293.40
             246.22,298.24 239.63,308.04 236.49,299.99
             236.04,298.83 236.72,297.44 236.36,296.31
             235.51,293.64 233.74,290.08 231.15,288.85
             230.73,291.87 231.35,295.18 230.13,298.17
             224.54,298.02 224.45,294.19 222.61,290.09
             221.36,287.29 218.60,284.30 216.77,281.75M 220.46,57.21
           C 222.33,59.00 227.97,61.69 229.84,63.54
             231.72,65.38 231.32,68.96 231.60,71.33
             232.15,75.82 235.21,82.27 239.00,84.83M 220.46,57.21
           C 223.60,57.73 241.12,56.45 240.67,61.17M 248.50,51.67
           C 244.64,49.69 238.73,49.90 234.44,50.54
             229.22,51.31 224.77,54.27 220.46,57.21M 220.46,57.21
           C 220.36,54.26 217.26,50.46 216.84,47.56
             216.08,42.36 215.22,37.28 211.70,33.06
             208.20,28.87 201.38,26.86 200.00,21.00M 220.04,57.21
           C 218.17,59.00 212.53,61.69 210.66,63.54
             208.78,65.38 209.19,68.96 208.90,71.33
             208.35,75.82 205.29,82.27 201.50,84.83M 220.04,57.21
           C 216.90,57.73 199.38,56.45 199.83,61.17M 192.00,51.67
           C 195.86,49.69 201.77,49.90 206.06,50.54
             211.28,51.31 215.73,54.27 220.04,57.21M 220.04,57.21
           C 220.14,54.26 223.24,50.46 223.66,47.56
             224.42,42.36 225.28,37.28 228.80,33.06
             232.30,28.87 239.12,26.86 240.50,21.00M 227.76,137.87
           C 225.07,137.87 213.95,137.87 211.26,137.87
             126.24,137.87 98.87,154.99 94.90,158.05
             90.80,161.22 91.09,162.05 91.09,162.05
             91.09,162.05 92.56,164.31 92.56,164.31
             92.56,164.31 94.35,160.93 100.91,157.77
             107.30,154.68 137.86,141.63 213.46,141.63
             215.45,141.63 223.57,141.63 225.56,141.63
             301.16,141.63 331.72,154.68 338.11,157.77
             344.66,160.93 347.19,165.31 347.19,165.31
             347.19,165.31 348.31,163.38 348.31,163.38
             348.31,163.38 347.97,161.22 344.12,158.05
             340.15,154.99 312.77,137.87 227.76,137.87M 337.12,167.32
           C 337.12,167.32 344.02,175.09 344.02,175.09
             344.02,175.09 350.20,170.77 350.20,170.77
             350.20,170.77 346.29,163.83 346.29,163.83
             346.29,163.83 337.12,167.32 337.12,167.32 Z
           M 344.02,175.09
           C 344.02,175.09 337.98,167.47 337.98,167.47
             337.98,167.47 347.04,163.59 347.04,163.59
             347.04,163.59 346.18,161.72 346.18,161.72
             346.18,161.72 334.38,166.60 334.38,166.60
             334.38,166.60 343.72,177.72 343.72,177.72
             343.72,177.72 344.02,175.09 344.02,175.09 Z
           M 103.60,167.32
           C 103.60,167.32 96.21,175.71 96.21,175.71
             96.21,175.71 90.51,170.77 90.51,170.77
             90.51,170.77 93.17,165.50 93.17,165.50
             93.17,165.50 103.60,167.32 103.60,167.32 Z
           M 96.21,175.71
           C 96.21,175.71 102.73,167.47 102.73,167.47
             102.73,167.47 93.17,165.50 93.17,165.50
             93.17,165.50 92.25,163.88 92.25,163.88
             92.25,163.88 106.33,166.60 106.33,166.60
             106.33,166.60 96.67,178.79 96.67,178.79
             96.67,178.79 96.21,175.71 96.21,175.71 Z
           M 134.51,163.24
           C 133.68,163.24 133.00,163.92 133.00,164.75
             133.00,165.58 133.68,166.26 134.51,166.26
             135.35,166.26 136.02,165.58 136.02,164.75
             136.02,163.92 135.35,163.24 134.51,163.24 Z
           M 109.62,168.73
           C 108.79,168.73 108.11,169.40 108.11,170.24
             108.11,171.07 108.79,171.75 109.62,171.75
             110.46,171.75 111.14,171.07 111.14,170.24
             111.14,169.40 110.46,168.73 109.62,168.73 Z
           M 106.16,158.50
           C 105.33,158.50 104.65,159.18 104.65,160.01
             104.65,160.84 105.33,161.52 106.16,161.52
             106.99,161.52 107.67,160.84 107.67,160.01
             107.67,159.18 106.99,158.50 106.16,158.50 Z
           M 131.84,150.92
           C 131.00,150.92 130.33,151.59 130.33,152.43
             130.33,153.26 131.00,153.94 131.84,153.94
             132.67,153.94 133.35,153.26 133.35,152.43
             133.35,151.59 132.67,150.92 131.84,150.92 Z
           M 201.72,142.31
           C 200.88,142.31 200.21,142.99 200.21,143.82
             200.21,144.65 200.88,145.33 201.72,145.33
             202.55,145.33 203.23,144.65 203.23,143.82
             203.23,142.99 202.55,142.31 201.72,142.31 Z
           M 331.99,169.49
           C 331.15,169.49 330.48,170.17 330.48,171.00
             330.48,171.83 331.15,172.51 331.99,172.51
             332.82,172.51 333.50,171.83 333.50,171.00
             333.50,170.17 332.82,169.49 331.99,169.49 Z
           M 334.08,158.51
           C 333.24,158.51 332.57,159.19 332.57,160.02
             332.57,160.86 333.24,161.53 334.08,161.53
             334.91,161.53 335.59,160.86 335.59,160.02
             335.59,159.19 334.91,158.51 334.08,158.51 Z
           M 307.04,150.77
           C 306.20,150.77 305.53,151.45 305.53,152.28
             305.53,153.12 306.20,153.79 307.04,153.79
             307.87,153.79 308.55,153.12 308.55,152.28
             308.55,151.45 307.87,150.77 307.04,150.77 Z
           M 305.12,163.77
           C 304.29,163.77 303.62,164.45 303.62,165.28
             303.62,166.11 304.29,166.79 305.12,166.79
             305.96,166.79 306.63,166.11 306.63,165.28
             306.63,164.45 305.96,163.77 305.12,163.77 Z
           M 269.10,160.11
           C 268.26,160.11 267.59,160.78 267.59,161.62
             267.59,162.45 268.26,163.13 269.10,163.13
             269.93,163.13 270.61,162.45 270.61,161.62
             270.61,160.78 269.93,160.11 269.10,160.11 Z
           M 270.54,144.39
           C 269.70,144.39 269.03,145.07 269.03,145.90
             269.03,146.73 269.70,147.41 270.54,147.41
             271.38,147.41 272.05,146.73 272.05,145.90
             272.05,145.07 271.38,144.39 270.54,144.39 Z
           M 238.58,142.31
           C 237.75,142.31 237.07,142.99 237.07,143.82
             237.07,144.65 237.75,145.33 238.58,145.33
             239.41,145.33 240.09,144.65 240.09,143.82
             240.09,142.99 239.41,142.31 238.58,142.31 Z
           M 238.58,158.54
           C 237.75,158.54 237.07,159.22 237.07,160.05
             237.07,160.88 237.75,161.56 238.58,161.56
             239.41,161.56 240.09,160.88 240.09,160.05
             240.09,159.22 239.41,158.54 238.58,158.54 Z
           M 201.72,158.54
           C 200.88,158.54 200.21,159.22 200.21,160.05
             200.21,160.88 200.88,161.56 201.72,161.56
             202.55,161.56 203.23,160.88 203.23,160.05
             203.23,159.22 202.55,158.54 201.72,158.54 Z
           M 171.18,160.06
           C 170.35,160.06 169.67,160.74 169.67,161.57
             169.67,162.41 170.35,163.08 171.18,163.08
             172.01,163.08 172.69,162.41 172.69,161.57
             172.69,160.74 172.01,160.06 171.18,160.06 Z
           M 170.10,144.17
           C 169.27,144.17 168.59,144.85 168.59,145.68
             168.59,146.52 169.27,147.19 170.10,147.19
             170.94,147.19 171.61,146.52 171.61,145.68
             171.61,144.85 170.94,144.17 170.10,144.17 Z
           M 255.30,146.74
           C 252.19,146.74 249.66,149.26 249.66,152.37
             249.66,155.48 252.19,158.00 255.30,158.00
             258.41,158.00 260.93,155.48 260.93,152.37
             260.93,149.26 258.41,146.74 255.30,146.74 Z
           M 255.30,144.32
           C 250.85,144.32 247.25,147.92 247.25,152.37
             247.25,156.82 250.85,160.42 255.30,160.42
             259.75,160.42 263.35,156.82 263.35,152.37
             263.35,147.92 259.75,144.32 255.30,144.32 Z
           M 321.97,168.55
           C 325.08,168.55 327.60,166.02 327.60,162.91
             327.60,159.80 325.08,157.28 321.97,157.28
             318.86,157.28 316.33,159.80 316.33,162.91
             316.33,166.03 318.86,168.55 321.97,168.55 Z
           M 320.72,154.38
           C 316.28,154.38 312.67,157.99 312.67,162.44
             312.67,166.88 316.28,170.49 320.72,170.49
             325.17,170.49 328.78,166.88 328.78,162.44
             328.78,157.99 325.17,154.38 320.72,154.38 Z
           M 119.99,156.70
           C 116.88,156.70 114.35,159.23 114.35,162.34
             114.35,165.45 116.88,167.98 119.99,167.98
             123.10,167.98 125.63,165.45 125.63,162.34
             125.63,159.23 123.10,156.70 119.99,156.70 Z
           M 121.14,153.52
           C 116.69,153.52 113.09,157.13 113.09,161.57
             113.09,166.02 116.69,169.62 121.14,169.62
             125.59,169.62 129.19,166.02 129.19,161.57
             129.19,157.13 125.59,153.52 121.14,153.52 Z
           M 186.28,146.73
           C 183.16,146.73 180.64,149.26 180.64,152.37
             180.64,155.48 183.16,158.01 186.28,158.01
             189.39,158.01 191.91,155.48 191.91,152.37
             191.91,149.26 189.39,146.73 186.28,146.73 Z
           M 186.28,144.32
           C 181.83,144.32 178.23,147.92 178.23,152.37
             178.23,156.82 181.83,160.42 186.28,160.42
             190.72,160.42 194.33,156.82 194.33,152.37
             194.33,147.92 190.72,144.32 186.28,144.32 Z
           M 279.48,154.24
           C 279.67,152.02 281.61,150.38 283.83,150.56
             283.83,150.56 293.00,151.33 293.00,151.33
             295.22,151.51 296.86,153.46 296.68,155.68
             296.68,155.68 296.68,155.68 296.68,155.68
             296.49,157.89 294.54,159.54 292.33,159.35
             292.33,159.35 283.16,158.59 283.16,158.59
             280.94,158.40 279.30,156.46 279.48,154.24
             279.48,154.24 279.48,154.24 279.48,154.24 Z
           M 277.70,153.87
           C 278.00,150.84 280.41,148.62 283.09,148.90
             283.09,148.90 294.15,150.05 294.15,150.05
             296.82,150.32 298.75,152.99 298.46,156.00
             298.46,156.00 298.46,156.00 298.46,156.00
             298.16,159.03 295.75,161.25 293.08,160.97
             293.08,160.97 282.01,159.83 282.01,159.83
             279.34,159.55 277.41,156.88 277.70,153.87
             277.70,153.87 277.70,153.87 277.70,153.87 Z
           M 158.64,154.24
           C 158.45,152.02 156.51,150.38 154.29,150.56
             154.29,150.56 145.12,151.33 145.12,151.33
             142.90,151.51 141.26,153.46 141.44,155.68
             141.44,155.68 141.44,155.68 141.44,155.68
             141.63,157.89 143.57,159.54 145.79,159.35
             145.79,159.35 154.96,158.59 154.96,158.59
             157.18,158.40 158.82,156.45 158.64,154.24
             158.64,154.24 158.64,154.24 158.64,154.24 Z
           M 160.42,153.87
           C 160.12,150.84 157.71,148.62 155.04,148.90
             155.04,148.90 143.97,150.05 143.97,150.05
             141.30,150.32 139.37,152.99 139.66,156.00
             139.66,156.00 139.66,156.00 139.66,156.00
             139.96,159.03 142.37,161.25 145.04,160.97
             145.04,160.97 156.11,159.83 156.11,159.83
             158.78,159.55 160.71,156.88 160.42,153.87
             160.42,153.87 160.42,153.87 160.42,153.87 Z
           M 220.80,144.73
           C 220.80,144.73 211.14,150.77 211.14,150.77
             211.14,150.77 220.40,157.42 220.40,157.42
             220.40,157.42 229.86,151.58 229.86,151.58
             229.86,151.58 220.80,144.73 220.80,144.73 Z
           M 220.93,142.02
           C 220.93,142.02 207.13,150.64 207.13,150.64
             207.13,150.64 220.36,160.13 220.36,160.13
             220.36,160.13 233.87,151.79 233.87,151.79
             233.87,151.79 220.93,142.02 220.93,142.02 Z
           M 235.01,164.94
           C 230.70,164.94 226.24,164.97 221.60,165.03
             217.31,164.97 213.15,164.94 209.13,164.94
             131.11,164.94 103.59,175.09 99.29,177.20
             96.21,178.71 96.54,178.83 96.54,178.83
             96.54,178.83 96.75,182.54 96.75,182.54
             96.75,182.54 98.23,180.36 105.42,177.97
             111.79,175.84 142.13,168.72 211.67,168.72
             214.89,168.72 218.20,168.73 221.60,168.76
             225.03,168.73 228.38,168.72 231.62,168.72
             300.92,168.72 329.34,175.75 335.68,177.97
             341.82,180.11 343.14,180.35 343.42,180.35
             343.51,180.35 343.50,180.33 343.50,180.33
             343.50,180.33 343.75,177.42 343.75,177.42
             343.75,177.42 343.35,177.20 339.22,175.76
             334.72,174.19 311.80,164.94 235.01,164.94M 220.79,209.02
           C 282.97,209.02 333.38,202.97 333.38,195.51
             333.38,188.04 282.97,181.99 220.79,181.99
             158.61,181.99 108.20,188.04 108.20,195.51
             108.20,202.97 158.61,209.02 220.79,209.02 Z
           M 220.64,117.53
           C 144.51,117.53 82.57,132.39 82.57,150.64
             82.57,154.51 85.41,158.33 91.03,161.99
             91.03,161.99 91.09,162.05 91.09,162.05
             92.35,163.64 96.52,169.82 96.87,182.41
             96.87,182.41 96.77,182.61 96.77,182.61
             93.83,184.98 92.34,187.38 92.34,189.76
             92.34,205.16 150.42,217.69 221.79,217.69
             293.17,217.69 351.24,205.16 351.24,189.76
             351.24,186.57 348.64,183.40 343.50,180.34
             343.50,180.34 343.38,180.10 343.38,180.10
             344.02,170.93 346.66,165.63 348.18,163.29
             355.12,159.27 358.72,154.96 358.72,150.65
             358.72,132.39 296.78,117.53 220.64,117.53M 220.64,117.28
           C 257.49,117.28 292.17,120.74 318.29,127.00
             344.53,133.29 358.97,141.69 358.97,150.65
             358.97,155.07 355.40,159.39 348.36,163.48
             346.86,165.82 344.28,171.04 343.64,180.05
             343.64,180.05 343.69,180.16 343.69,180.16
             348.87,183.25 351.50,186.48 351.50,189.76
             351.50,197.34 337.94,204.44 313.34,209.74
             288.85,215.03 256.34,217.94 221.80,217.94
             187.25,217.94 154.74,215.03 130.25,209.74
             105.64,204.44 92.09,197.34 92.09,189.76
             92.09,187.31 93.60,184.86 96.57,182.45
             96.57,182.45 96.62,182.36 96.62,182.36
             96.25,169.89 92.15,163.78 90.92,162.23
             90.92,162.23 90.89,162.20 90.89,162.20
             85.20,158.49 82.32,154.60 82.32,150.64
             82.32,141.69 96.76,133.29 123.00,127.00
             149.12,120.73 183.80,117.28 220.64,117.28
             220.64,117.28 220.64,117.28 220.64,117.28 Z
           M 221.79,217.81
           C 293.24,217.81 351.37,205.23 351.37,189.76
             351.37,186.52 348.74,183.31 343.61,180.28
             343.61,180.28 343.51,180.11 343.51,180.11
             344.14,170.96 346.78,165.69 348.25,163.40
             355.28,159.32 358.85,155.03 358.85,150.64
             358.85,132.32 296.85,117.41 220.65,117.41
             144.44,117.41 82.44,132.32 82.44,150.64
             82.44,154.56 85.31,158.41 90.99,162.13
             92.25,163.71 96.39,169.87 96.75,182.35
             96.75,182.35 96.70,182.51 96.70,182.51
             93.73,184.90 92.22,187.34 92.22,189.76
             92.22,205.23 150.35,217.81 221.79,217.81
             221.79,217.81 221.79,217.81 221.79,217.81 Z
           M 313.35,63.98
           C 307.73,63.98 303.18,68.53 303.18,74.15
             303.18,79.76 307.73,84.31 313.35,84.31
             318.96,84.31 323.51,79.76 323.51,74.15
             323.51,68.53 318.96,63.98 313.35,63.98 Z
           M 317.75,136.84
           C 302.41,119.97 308.55,91.98 308.55,91.98
             304.71,110.00 272.51,126.87 272.51,126.87M 265.22,125.34
           C 295.13,117.67 308.93,80.86 308.93,80.86
             308.93,80.86 314.30,82.77 314.30,82.77
             304.33,114.60 325.81,136.84 325.81,136.84
             325.81,136.84 265.22,125.34 265.22,125.34 Z
           M 126.60,59.77
           C 120.99,59.77 116.44,64.32 116.44,69.93
             116.44,75.54 120.99,80.09 126.60,80.09
             132.22,80.09 136.77,75.54 136.77,69.93
             136.77,64.32 132.22,59.77 126.60,59.77 Z
           M 122.20,132.62
           C 137.54,115.75 131.40,87.76 131.40,87.76
             135.24,105.78 167.44,122.65 167.44,122.65M 174.73,121.12
           C 144.82,113.45 131.02,76.64 131.02,76.64
             131.02,76.64 125.65,78.56 125.65,78.56
             135.62,110.38 114.14,132.62 114.14,132.62
             114.14,132.62 174.73,121.12 174.73,121.12 Z
           M 333.95,108.37
           C 327.49,108.37 322.26,113.60 322.26,120.06
             322.26,126.52 327.49,131.76 333.95,131.76
             340.41,131.76 345.65,126.52 345.65,120.06
             345.65,113.60 340.41,108.37 333.95,108.37 Z
           M 263.21,119.49
           C 269.66,119.49 274.90,114.26 274.90,107.80
             274.90,101.34 269.66,96.10 263.21,96.10
             256.75,96.10 251.51,101.34 251.51,107.80
             251.51,114.26 256.75,119.49 263.21,119.49 Z
           M 181.82,95.81
           C 175.36,95.81 170.12,101.05 170.12,107.51
             170.12,113.97 175.36,119.20 181.82,119.20
             188.28,119.20 193.51,113.97 193.51,107.51
             193.51,101.05 188.28,95.81 181.82,95.81 Z
           M 103.31,109.42
           C 96.85,109.42 91.61,114.66 91.61,121.12
             91.61,127.58 96.85,132.82 103.31,132.82
             109.77,132.82 115.00,127.58 115.00,121.12
             115.00,114.66 109.77,109.42 103.31,109.42 Z
           M 216.04,19.03
           C 213.55,15.58 215.03,12.08 215.18,11.84M 228.50,19.03
           C 223.52,15.77 226.78,11.93 226.78,11.93M 215.56,8.88
           C 213.83,7.81 212.41,7.30 210.29,7.73
             205.32,8.71 202.68,13.80 205.69,17.40
             205.79,17.53 207.96,20.78 211.73,19.60
             214.89,18.61 214.12,17.32 214.75,15.66
             214.85,16.84 216.14,21.42 220.93,21.88
             223.21,22.10 225.83,19.52 226.49,17.24
             226.62,17.39 226.27,16.75 226.41,16.90
             227.30,17.88 227.64,19.03 229.99,19.69
             234.06,20.83 238.61,15.29 236.80,11.71
             235.48,9.10 232.26,7.48 229.56,8.82
             228.87,8.47 227.13,6.84 225.70,6.12
             223.88,5.20 221.86,4.34 219.50,5.60
             218.79,5.98 216.02,8.10 215.56,8.88
             215.56,8.88 215.56,8.88 215.56,8.88 Z
           M 203.25,61.64M 185.49,68.76
           C 185.27,63.65 191.31,63.02 191.60,63.03M 191.50,77.50
           C 192.75,71.85 198.21,73.67 198.21,73.67M 193.90,61.69
           C 193.98,59.65 193.72,58.16 192.32,56.52
             189.01,52.67 183.96,53.38 182.30,57.76
             181.66,59.45 181.56,61.75 182.59,63.32
             183.69,65.00 185.50,64.92 187.26,64.65
             186.28,65.32 184.27,68.47 186.43,72.23
             187.57,74.21 189.67,75.85 191.98,75.30
             191.91,75.49 192.75,74.64 192.69,74.83
             192.27,76.09 190.91,76.28 191.56,79.56
             192.39,83.71 199.62,84.91 201.86,81.58
             203.48,79.15 203.31,75.55 200.82,73.85
             200.78,73.07 201.47,70.70 201.28,69.16
             200.97,66.66 199.94,64.56 198.69,63.51
             198.07,62.98 194.80,61.69 193.90,61.69
             193.90,61.69 193.90,61.69 193.90,61.69 Z
           M 258.60,67.89
           C 258.32,64.06 254.65,62.56 254.36,62.57M 253.23,78.94
           C 253.23,72.23 248.25,72.49 248.25,72.49M 250.65,61.69
           C 250.57,59.65 250.83,58.16 252.23,56.52
             255.54,52.68 260.59,53.38 262.25,57.76
             262.89,59.45 262.99,61.75 261.96,63.33
             260.86,65.00 259.05,64.92 257.29,64.65
             258.27,65.32 259.37,69.83 258.13,72.23
             257.06,74.26 254.88,75.85 252.56,75.31
             252.64,75.49 252.50,75.11 252.56,75.31
             252.98,76.56 253.41,77.92 253.23,79.23
             252.70,83.42 244.93,84.91 242.69,81.58
             241.07,79.15 241.24,75.55 243.73,73.85
             243.77,73.07 243.08,70.70 243.27,69.16
             243.58,66.66 244.61,64.56 245.86,63.51
             246.48,62.98 249.75,61.69 250.65,61.69
             250.65,61.69 250.65,61.69 250.65,61.69 Z
           M 184.50,121.89
           C 216.62,113.93 217.58,77.22 217.58,77.22
             218.25,71.27 214.60,71.65 214.60,71.65
             211.15,71.65 212.11,76.73 212.11,76.73
             213.45,80.66 212.88,82.01 212.88,82.01
             211.82,89.39 203.29,88.43 203.29,88.43
             200.32,90.73 196.68,91.02 196.68,91.02
             195.52,87.57 196.29,82.49 196.29,82.49
             196.29,82.49 185.75,53.54 183.35,52.29
             180.96,51.04 180.86,49.22 180.86,49.22
             180.86,49.22 184.31,42.70 190.83,42.13
             190.83,42.13 188.91,41.36 187.38,39.06
             185.85,36.76 193.13,36.57 195.05,36.76
             196.97,36.95 202.91,40.02 204.44,42.70
             205.98,45.39 209.43,46.35 210.20,45.20
             210.96,44.05 208.66,39.44 204.25,38.10
             199.84,36.76 190.26,31.77 188.53,26.02
             188.53,26.02 187.76,24.30 192.56,23.15
             192.56,23.15 188.34,18.36 191.41,11.84
             191.41,11.84 195.62,10.87 197.35,11.07
             198.48,11.19 207.79,8.27 221.10,8.30
             234.41,8.27 243.72,11.19 244.85,11.07
             246.58,10.88 250.79,11.84 250.79,11.84
             253.86,18.36 249.64,23.15 249.64,23.15
             254.44,24.30 253.67,26.02 253.67,26.02
             251.94,31.77 242.36,36.76 237.95,38.10
             233.54,39.44 231.24,44.05 232.01,45.20
             232.78,46.35 236.23,45.39 237.76,42.70
             239.29,40.02 245.23,36.95 247.15,36.76
             249.07,36.57 256.36,36.76 254.82,39.06
             253.29,41.36 251.37,42.13 251.37,42.13
             257.89,42.70 261.34,49.22 261.34,49.22
             261.34,49.22 261.25,51.04 258.85,52.29
             256.46,53.54 245.91,82.49 245.91,82.49
             245.91,82.49 246.68,87.57 245.53,91.02
             245.53,91.02 241.89,90.73 238.92,88.43
             238.92,88.43 230.38,89.39 229.33,82.01
             229.33,82.01 228.75,80.67 230.09,76.73
             230.09,76.73 231.05,71.66 227.60,71.66
             227.60,71.66 223.96,71.27 224.63,77.22
             224.63,77.22 226.50,114.22 258.60,122.17M 217.29,674.43
           C -41.92,492.68 44.74,258.01 44.74,258.01
             44.74,258.01 394.44,258.01 394.44,258.01
             438.92,563.23 217.29,674.43 217.29,674.43 Z
           M 373.31,100.50
           C 373.33,104.58 381.43,101.48 380.49,106.19M 391.81,65.50
           C 388.66,67.48 389.56,71.14 389.54,74.37
             389.52,79.94 390.43,86.30 389.03,91.73
             387.93,96.01 383.19,102.71 380.49,106.19M 380.50,106.19
           C 382.05,101.36 377.27,98.93 376.81,94.38
             376.57,92.03 377.70,89.77 377.81,87.46
             377.94,84.76 377.08,82.22 377.06,79.50M 363.06,116.00
           C 365.15,115.47 367.38,115.96 369.05,114.17
             370.46,112.66 370.03,110.58 370.92,108.94
             372.59,105.83 378.02,104.12 380.49,106.19M 360.34,123.04
           C 365.23,123.61 367.53,120.16 367.53,120.16M 377.02,111.82
           C 366.09,132.81 334.32,142.23 334.32,142.23M 356.60,105.50
           C 364.94,107.80 364.94,100.89 364.94,100.89
             369.26,101.47 371.27,95.14 371.27,95.14
             373.28,88.81 369.83,86.23 369.83,86.23
             374.14,83.64 370.41,77.31 370.41,77.31M 384.50,66.39
           C 384.50,66.39 383.56,76.45 385.07,81.91
             385.59,83.80 386.30,90.11 384.86,92.15
             383.98,93.39 382.66,92.37 382.43,91.19
             382.03,89.22 382.54,86.93 382.65,84.95
             382.79,82.53 382.83,79.89 381.91,77.60
             380.18,73.29 375.58,70.41 373.00,70.12
             370.41,69.83 373.28,77.02 370.41,77.31
             367.53,77.60 363.51,76.73 363.79,84.50
             363.79,84.50 356.03,86.22 358.90,93.99
             358.90,93.99 351.14,96.29 356.60,105.49
             356.60,105.49 352.58,107.50 352.58,112.11
             352.58,116.71 357.18,117.57 357.18,117.57
             357.18,117.57 354.59,122.17 360.34,123.03
             360.34,123.03 350.28,136.26 323.53,136.84
             323.53,136.84 346.25,145.47 346.25,145.47
             346.25,145.47 373.62,134.74 380.53,106.27
             380.53,106.27 387.95,100.89 391.40,87.09
             394.85,73.28 402.33,72.13 403.19,71.56
             404.05,70.98 403.77,64.08 397.15,64.66
             397.15,64.66 395.72,60.06 393.13,57.76
             393.13,57.76 387.09,62.07 386.80,65.81
             386.80,65.81 384.50,66.39 384.50,66.39 Z
           M 402.76,70.70
           C 403.08,73.89 403.97,77.48 407.59,78.25
             409.95,78.75 412.00,77.84 413.11,75.72
             413.91,74.21 414.17,71.64 416.04,70.99
             417.73,70.39 419.11,71.86 418.91,73.52
             418.60,76.15 415.46,77.94 413.39,79.04
             413.40,79.89 413.21,88.09 413.26,88.09
             419.44,88.38 432.28,74.52 421.45,64.37
             409.95,53.58 398.30,64.66 398.30,64.66
             398.30,64.66 402.76,70.70 402.76,70.70 Z
           M 61.88,100.50
           C 61.85,104.58 53.76,101.48 54.69,106.19M 43.38,65.50
           C 46.52,67.48 45.63,71.14 45.64,74.37
             45.66,79.94 44.75,86.30 46.15,91.73
             47.25,96.01 51.99,102.71 54.69,106.19M 54.69,106.19
           C 53.13,101.36 57.91,98.93 58.37,94.38
             58.61,92.03 57.49,89.77 57.37,87.46
             57.24,84.76 58.11,82.22 58.13,79.50M 72.13,116.00
           C 70.03,115.47 67.80,115.96 66.14,114.17
             64.72,112.66 65.15,110.58 64.27,108.94
             62.59,105.83 57.16,104.12 54.69,106.19M 74.84,123.04
           C 69.95,123.61 67.65,120.16 67.65,120.16M 58.16,111.82
           C 69.09,132.81 100.87,142.23 100.87,142.23M 78.58,105.50
           C 70.24,107.80 70.24,100.89 70.24,100.89
             65.92,101.47 63.91,95.14 63.91,95.14
             61.90,88.81 65.35,86.23 65.35,86.23
             61.04,83.64 64.77,77.31 64.77,77.31M 50.68,66.39
           C 50.68,66.39 51.62,76.45 50.11,81.91
             49.59,83.80 48.88,90.11 50.32,92.15
             51.20,93.39 52.52,92.37 52.75,91.19
             53.15,89.22 52.64,86.93 52.53,84.95
             52.40,82.53 52.36,79.89 53.27,77.60
             55.00,73.29 59.60,70.41 62.19,70.12
             64.77,69.83 61.90,77.02 64.77,77.31
             67.65,77.60 71.68,76.73 71.39,84.50
             71.39,84.50 79.15,86.22 76.28,93.99
             76.28,93.99 84.04,96.29 78.58,105.49
             78.58,105.49 82.60,107.50 82.60,112.11
             82.60,116.71 78.00,117.57 78.00,117.57
             78.00,117.57 80.59,122.17 74.84,123.03
             74.84,123.03 84.90,136.26 111.65,136.84
             111.65,136.84 88.93,145.47 88.93,145.47
             88.93,145.47 61.56,134.74 54.65,106.27
             54.65,106.27 47.23,100.89 43.78,87.09
             40.33,73.28 32.85,72.13 31.99,71.56
             31.13,70.98 31.41,64.08 38.03,64.66
             38.03,64.66 39.47,60.06 42.05,57.76
             42.05,57.76 48.09,62.07 48.38,65.81
             48.38,65.81 50.68,66.39 50.68,66.39 Z
           M 32.42,70.70
           C 32.10,73.89 31.21,77.48 27.59,78.25
             25.23,78.75 23.18,77.84 22.07,75.72
             21.27,74.21 21.01,71.64 19.14,70.99
             17.45,70.39 16.07,71.86 16.27,73.52
             16.58,76.15 19.72,77.94 21.79,79.04
             21.79,79.89 21.97,88.09 21.92,88.09
             15.74,88.38 2.90,74.52 13.73,64.37
             25.23,53.58 36.88,64.66 36.88,64.66
             36.88,64.66 32.42,70.70 32.42,70.70 Z" />
</svg>
